<svg width="24" height="24" viewBox="0 0 24 24" fill="none" xmlns="http://www.w3.org/2000/svg">
<path d="M23.9515 19.9634C23.8957 19.8767 23.8001 19.8247 23.6973 19.8247H0.302485C0.199663 19.8247 0.103866 19.8767 0.0482255 19.9634C-0.00723513 20.0496 -0.0155191 20.1584 0.0267971 20.2517L1.21147 22.8731C1.52083 23.5578 2.20636 24 2.95744 24H21.0422C21.7935 24 22.4788 23.5576 22.7882 22.8731L23.9728 20.2517C24.0152 20.1584 24.0069 20.0496 23.9514 19.9634H23.9515Z" fill="#333333"/>
<path d="M9.07532 2.60291C9.07532 2.09675 8.73265 1.67357 8.2686 1.54085V0.302519C8.2686 0.135593 8.13301 0 7.96608 0C7.79916 0 7.66356 0.135593 7.66356 0.302519V1.54085C7.19954 1.67357 6.85685 2.09675 6.85685 2.60291V5.76801H9.07532V2.60291Z" fill="#333333"/>
<path d="M13.109 2.60291C13.109 2.09675 12.7663 1.67357 12.3023 1.54085V0.302519C12.3023 0.135593 12.1667 0 11.9997 0C11.8328 0 11.6972 0.135593 11.6972 0.302519V1.54085C11.2332 1.67357 10.8905 2.09675 10.8905 2.60291V5.76801H13.109V2.60291Z" fill="#333333"/>
<path d="M17.1426 2.60291C17.1426 2.09675 16.8 1.67357 16.3359 1.54085V0.302519C16.3359 0.135593 16.2003 0 16.0334 0C15.8665 0 15.7309 0.135593 15.7309 0.302519V1.54085C15.2669 1.67357 14.9242 2.09675 14.9242 2.60291V5.76801H17.1426V2.60291Z" fill="#333333"/>
<path d="M5.93889 8.88002C6.4368 8.40176 7.00132 7.85973 8.09739 7.85973C9.19402 7.85973 9.75872 8.40176 10.2568 8.88002C10.7327 9.33687 11.1438 9.7316 11.9968 9.7316C12.8498 9.7316 13.2608 9.33688 13.7365 8.88002C14.2344 8.40176 14.7989 7.85973 15.895 7.85973C16.9918 7.85973 17.5567 8.40176 18.0548 8.88002C18.5311 9.33687 18.9425 9.7316 19.796 9.7316C19.9693 9.7316 20.1203 9.71179 20.2615 9.68208V7.4825C20.2615 6.87078 19.764 6.37329 19.1523 6.37329H4.84715C4.23543 6.37329 3.73794 6.87083 3.73794 7.4825V9.68263C3.87803 9.71198 4.02785 9.73161 4.19966 9.73161C5.05247 9.73161 5.46321 9.33689 5.93912 8.88004L5.93889 8.88002Z" fill="#333333"/>
<path d="M20.262 10.2966C20.117 10.32 19.9648 10.3364 19.7965 10.3364C18.6995 10.3364 18.1346 9.79438 17.6363 9.31611C17.1602 8.85927 16.7491 8.46454 15.8954 8.46454C15.0426 8.46454 14.6318 8.85925 14.1559 9.31611C13.658 9.79438 13.0935 10.3364 11.9971 10.3364C10.9006 10.3364 10.3359 9.79438 9.83783 9.31611C9.36173 8.85927 8.95081 8.46454 8.09762 8.46454C7.24481 8.46454 6.83407 8.85925 6.35816 9.31611C5.86025 9.79438 5.29573 10.3364 4.19966 10.3364C4.03273 10.3364 3.88183 10.3204 3.73794 10.2973V11.8229H20.2618L20.262 10.2966Z" fill="#333333"/>
<path d="M4.19911 16.4572C5.05193 16.4572 5.46266 16.0624 5.93858 15.606C6.43649 15.1277 7.001 14.5857 8.09708 14.5857C9.19371 14.5857 9.75841 15.1277 10.2565 15.606C10.7324 16.0624 11.1433 16.4572 11.9965 16.4572C12.8495 16.4572 13.2604 16.0624 13.7362 15.6056C14.2343 15.1279 14.7986 14.5859 15.8947 14.5859C16.9915 14.5859 17.5562 15.1279 18.0545 15.6056C18.5307 16.0624 18.9422 16.4572 19.7957 16.4572C20.6492 16.4572 21.0606 16.0624 21.5369 15.6056C21.836 15.3187 22.1615 15.0108 22.6096 14.8088V13.5377C22.6096 12.926 22.1118 12.4285 21.5003 12.4285L2.49823 12.4283C1.88669 12.4283 1.38902 12.9258 1.38902 13.5375V14.8092C1.83613 15.0112 2.16134 15.319 2.46006 15.606C2.93561 16.0624 3.34653 16.4572 4.19902 16.4572L4.19911 16.4572Z" fill="#333333"/>
<path d="M22.61 15.4942C22.3748 15.6445 22.1711 15.8358 21.9561 16.0421C21.458 16.5198 20.8931 17.0619 19.7963 17.0619C18.6993 17.0619 18.1346 16.5198 17.6364 16.0421C17.1601 15.5853 16.749 15.1906 15.8953 15.1906C15.0425 15.1906 14.6317 15.5853 14.1558 16.0418C13.6577 16.52 13.0934 17.062 11.9969 17.062C10.9005 17.062 10.3358 16.52 9.8377 16.0423C9.36178 15.5855 8.95067 15.1907 8.09749 15.1907C7.24467 15.1907 6.83394 15.5855 6.35802 16.0419C5.86012 16.5202 5.2956 17.0622 4.19952 17.0622C3.10345 17.0622 2.53944 16.5202 2.04158 16.0419C1.82712 15.8361 1.62417 15.6452 1.38971 15.4951V19.2195L22.6101 19.2193V15.494L22.61 15.4942Z" fill="#333333"/>
</svg>
