<svg width="24" height="24" viewBox="0 0 24 24" fill="none" xmlns="http://www.w3.org/2000/svg">
<path d="M18.1311 11.4294C18.1311 11.1584 17.2013 10.8873 16.0546 10.8873C14.9079 10.8873 13.9781 11.2453 13.9781 11.4294L13.0896 22.9209C13.0896 22.9925 14.4171 23.463 16.0494 23.463C17.6868 23.463 18.8852 23.0641 19.0092 22.9209L18.1311 11.4294Z" fill="#FF9645"/>
<path d="M18.1311 11.4294C18.1311 11.1584 17.2013 10.8873 16.0546 10.8873C14.9078 10.8873 13.9781 11.2453 13.9781 11.4294L13.8128 13.5876C13.9212 13.8484 14.0039 14.1144 14.0349 14.3956C14.1124 15.086 13.2497 17.4846 14.5308 17.6994C15.1971 17.8119 15.6258 16.339 16.4936 16.3441C16.7157 16.3441 16.8759 16.5436 17.1135 16.4106C17.2943 16.3083 17.1961 16.0322 17.4234 15.9043C17.63 15.7918 18.1724 15.889 18.41 15.8429C18.4306 15.8378 18.4461 15.8327 18.4668 15.8327L18.1311 11.4294Z" fill="#FF0075"/>
<path d="M13.9832 11.4294L13.9109 12.3551C15.0886 13.1631 17.5319 13.8229 18.1879 12.1863L18.131 11.4294C18.131 11.1584 17.2013 10.8873 16.0545 10.8873C14.913 10.8873 13.9832 11.2453 13.9832 11.4294Z" fill="#BA0055"/>
<path d="M23.8234 5.33328C23.5754 5.06223 23.1519 5.04689 22.8781 5.29748L20.1869 7.75739C20.0785 7.82388 19.9958 7.67045 20.0423 7.57328L22.9504 3.61493C23.1674 3.31831 23.1002 2.90406 22.8006 2.68927C22.501 2.47447 22.0826 2.54096 21.8657 2.83246L19.035 6.68854C18.9317 6.8215 18.6476 6.66808 18.7303 6.49931L21.282 1.64598C21.4525 1.32379 21.3233 0.919768 20.9979 0.751001C20.6725 0.582233 20.2644 0.710087 20.0991 1.03228L17.5267 5.93164C17.3253 6.21292 16.9534 5.99301 16.9947 5.75264L18.6838 1.4363C18.8181 1.09365 18.6476 0.710087 18.3016 0.577119C17.9555 0.444151 17.5681 0.612918 17.4338 0.955567L15.5846 5.68105L14.6703 7.20506C14.6703 7.20506 14.5205 7.50169 14.4688 7.51191C14.3913 7.51191 14.3552 7.36872 14.3345 7.28689C13.849 5.56853 12.8469 4.81164 12.7849 4.75538C12.3045 4.33602 11.6588 4.48433 11.4006 4.74516C11.1423 5.00598 11.4212 5.44068 11.6795 5.69639C11.695 5.71173 12.9554 6.97493 13.1878 8.86205C13.162 9.02059 13.1826 9.97694 13.2498 10.294C13.3583 10.9231 13.6475 11.3424 13.9678 11.6186C14.4998 12.084 16.2819 12.9073 16.7519 12.9636C17.8315 13.1017 18.4978 12.3704 18.4978 12.3704C19.6032 11.3987 20.6053 9.33255 20.6053 9.33255C20.6467 9.22516 20.6776 9.16379 20.7861 9.01036L23.7924 6.26917C24.0558 6.01858 24.0713 5.59922 23.8234 5.33328Z" fill="#FF0075"/>
<path d="M20.6415 9.23032C20.6363 9.23032 20.6312 9.2252 20.626 9.2252C20.1094 9.05643 19.5619 9.13826 19.0609 9.00018C18.4255 8.82118 18.2912 8.04895 17.5061 8.07963C16.628 8.11543 16.2457 8.58593 15.8428 9.25589C15.6362 9.59853 15.2798 9.64456 15.0164 9.91561C14.505 10.4424 14.7736 11.2555 15.0783 11.8181C15.2178 12.0789 15.3779 12.3193 15.5536 12.5341C16.0546 12.7642 16.5247 12.9432 16.7364 12.9688C17.816 13.1068 18.4823 12.3755 18.4823 12.3755C19.5877 11.4038 20.5898 9.33771 20.5898 9.33771C20.6105 9.2968 20.626 9.261 20.6415 9.23032Z" fill="#3AE82C"/>
<path d="M18.9059 7.55794C18.9111 7.20506 18.3791 7.13347 18.1053 7.02096C17.5113 6.77036 16.7003 6.41237 16.504 5.75776C16.2561 4.92415 16.6796 4.22863 17.0516 3.51264C17.4338 2.77621 17.4545 2.02443 17.9193 1.35447C18.0795 1.11922 18.2603 0.889083 18.4204 0.643603C18.3791 0.618033 18.3377 0.592462 18.2913 0.577119C17.9452 0.444151 17.5578 0.612918 17.4235 0.955567L15.5742 5.68105L15.0887 6.4942C15.1404 6.56579 15.1868 6.63739 15.2127 6.71922C15.3418 7.12835 15.0009 7.48634 15.2333 7.91082C15.3883 8.19721 15.6982 8.38643 15.9875 8.21767C16.1373 8.13584 16.1528 7.87502 16.2974 7.78296C16.4834 7.67045 16.5453 7.78808 16.721 7.73694C16.9999 7.66022 17.1187 7.31758 17.3976 7.24086C17.7437 7.14881 17.9348 7.53748 18.1879 7.69602C18.4256 7.85456 18.9008 8.0131 18.9059 7.55794Z" fill="#FFC401"/>
<path d="M14.2467 9.97666C14.2674 9.63401 14.3862 9.43456 14.6548 9.1993C14.8201 9.05611 15.4399 8.85154 15.1816 8.56004C14.944 8.2941 14.4998 8.8004 14.2002 8.74926C13.849 8.68789 13.7353 8.34524 13.6682 8.04351C13.601 7.72131 13.7302 7.36844 13.632 7.0667C13.5184 6.70871 13.162 6.67803 12.9863 6.38652C12.7177 5.94159 13.0638 5.67565 13.3634 5.37392C13.0587 4.98524 12.8056 4.7909 12.7694 4.76022C12.289 4.34086 11.6433 4.48917 11.3851 4.74999C11.1268 5.01081 11.4057 5.44551 11.664 5.70122C11.6795 5.71657 12.9399 6.97976 13.1723 8.86688C13.1465 9.02542 13.1671 9.98177 13.2343 10.2988C13.3428 10.9279 13.632 11.3473 13.9523 11.6234C13.9884 11.6541 14.0349 11.6899 14.0814 11.7257C14.2054 11.5211 14.288 11.291 14.319 11.0353C14.3603 10.6824 14.226 10.3142 14.2467 9.97666Z" fill="#33B4FF"/>
<path d="M23.8234 5.33336C23.5754 5.06231 23.1519 5.04697 22.8781 5.29756L20.1869 7.75747C20.0785 7.82396 19.9958 7.67053 20.0423 7.57336L22.9504 3.61501C23.1674 3.31838 23.1002 2.90414 22.8006 2.68934C22.7283 2.63309 22.6457 2.59729 22.5579 2.58195C22.1704 2.95017 22.0516 3.48204 22.0258 3.99345C22.0155 4.24405 21.9742 4.28496 21.7624 4.40259C21.4886 4.5509 21.2407 4.74012 20.9979 4.93446C20.719 5.15948 20.409 5.39985 20.2283 5.71181C20.1663 5.82432 20.094 5.93172 20.1094 6.06469C20.1249 6.16185 20.1869 6.19254 20.2128 6.27948C20.2644 6.4687 20.0888 6.58122 19.9648 6.69884C19.8047 6.85227 19.6497 7.01592 19.5206 7.19491C19.3398 7.44551 18.9524 7.81373 19.1074 8.15126C19.1797 8.3098 19.4018 8.5246 19.5826 8.51948C19.784 8.51437 20.001 8.33026 20.1559 8.22797C20.4762 8.02852 20.8584 7.89555 21.1425 7.65519C21.2923 7.52733 21.5454 7.23071 21.7675 7.23071C22.0103 7.23583 21.876 7.59382 21.9587 7.75236C21.9793 7.79839 22.0052 7.83418 22.031 7.86998L23.7821 6.26925C24.0558 6.01866 24.0713 5.5993 23.8234 5.33336Z" fill="#DB57FF"/>
<path d="M10.011 15.0858C10.011 14.9017 9.08126 14.5437 7.9397 14.5437C6.79298 14.5437 5.86838 14.8148 5.86838 15.0858L5.25369 22.9719C5.36733 23.1048 6.45723 23.4679 7.9397 23.4679C9.42217 23.4679 10.6257 23.0384 10.6257 22.9719L10.011 15.0858Z" fill="#FF9645"/>
<path d="M10.011 15.086C10.011 14.9019 9.08123 14.5439 7.93968 14.5439C6.79296 14.5439 5.86835 14.8149 5.86835 15.086L5.46028 20.2871C5.75471 21.0747 6.2196 20.9775 6.35906 20.8957C6.89626 20.5786 6.86527 19.4074 7.07705 19.3358C8.17728 18.9472 8.09464 22.1691 8.75581 22.0566C9.50479 21.9287 10.0162 20.3178 10.3054 18.9574L10.011 15.086Z" fill="#D53BFF"/>
<path d="M10.0782 16.0116L10.0058 15.086C10.0058 14.9019 9.07607 14.5439 7.93451 14.5439C6.78779 14.5439 5.86319 14.8149 5.86319 15.086L5.80637 15.8378C6.45721 17.4743 8.90561 16.8146 10.0782 16.0116Z" fill="#A418C9"/>
<path d="M0.176138 8.98998C0.424077 8.71893 0.847641 8.70359 1.12141 8.95418L3.81258 11.4141C3.92106 11.4806 4.0037 11.322 3.95721 11.23L1.04909 7.27162C0.832144 6.975 0.899295 6.56076 1.19889 6.34596C1.49848 6.13117 1.91688 6.19765 2.13383 6.49427L4.96447 10.3503C5.06778 10.4833 5.35187 10.3299 5.26923 10.1611L2.71752 5.30267C2.54706 4.98048 2.67619 4.57646 3.00161 4.4077C3.32704 4.23893 3.7351 4.36678 3.90556 4.68898L6.47793 9.58834C6.67938 9.86962 7.05129 9.64971 7.00997 9.40934L5.32088 5.09811C5.18658 4.75546 5.35704 4.3719 5.70312 4.23893C6.0492 4.10596 6.43661 4.27473 6.56574 4.61738L8.41496 9.33774L9.32924 10.8618C9.32924 10.8618 9.47387 11.1584 9.53069 11.1686C9.60817 11.1686 9.64433 11.0254 9.66499 10.9436C10.1505 9.22523 11.1526 8.46834 11.2146 8.41208C11.695 7.99272 12.3407 8.14103 12.5989 8.40185C12.8572 8.66267 12.5783 9.09738 12.32 9.35309C12.3045 9.36843 11.0442 10.6316 10.8117 12.5187C10.8375 12.6773 10.8169 13.6336 10.7497 13.9507C10.6412 14.5798 10.352 14.9991 10.0317 15.2753C9.49969 15.7407 7.7228 16.564 7.24758 16.6203C6.16801 16.7584 5.50167 16.0271 5.50167 16.0271C4.39627 15.0554 3.39419 12.9893 3.39419 12.9893C3.35286 12.8819 3.32187 12.8205 3.2134 12.6671L0.217461 9.92587C-0.0563053 9.67528 -0.0718015 9.26103 0.176138 8.98998Z" fill="#D53BFF"/>
<path d="M8.61639 13.2705C8.68871 12.9636 8.88499 12.6619 8.4356 12.5187C8.03787 12.3908 7.85708 12.7642 7.6298 13.025C7.34054 13.3676 6.01819 14.4672 6.01303 13.3472C6.00786 12.4471 7.15458 12.0073 7.38702 11.2453C7.74344 10.0843 6.29712 10.7645 5.89422 11.1021C5.21239 11.68 4.85081 12.5187 3.85905 12.6977C3.6731 12.7335 3.46648 12.7232 3.2547 12.7181C3.33218 12.8358 3.36317 12.892 3.39933 12.9892C3.39933 12.9892 4.40142 15.0553 5.50682 16.027C5.50682 16.027 6.17315 16.7583 7.25272 16.6202C7.52649 16.5844 8.22898 16.298 8.87983 15.9707C8.89532 15.8224 8.92631 15.669 8.97797 15.5105C9.1071 15.1013 9.7941 14.5643 9.6753 14.099C9.48934 13.383 8.38395 14.2268 8.61639 13.2705Z" fill="#26A5FF"/>
<path d="M1.04909 7.26628L2.70718 9.52162C2.76917 9.49094 2.84148 9.47048 2.93446 9.46025C3.28571 9.41934 3.43034 9.81824 3.74026 9.8029C4.25681 9.78245 3.84357 9.46025 3.89006 9.23012C3.90556 9.14829 3.94172 9.08181 3.99337 9.02555L2.12866 6.48382C1.91171 6.18719 1.49331 6.12071 1.19372 6.33551C0.899292 6.56053 0.832142 6.97477 1.04909 7.26628Z" fill="#FFC401"/>
<path d="M0.176108 8.98995C-0.0718316 9.261 -0.0563354 9.67525 0.212266 9.92584L1.91685 11.4805C2.14929 11.368 2.36624 11.2197 2.47988 11.0305C2.60385 10.831 2.5212 10.5037 2.48504 10.1969L1.12138 8.94904C0.852776 8.70356 0.429213 8.7189 0.176108 8.98995Z" fill="#FFC401"/>
<path d="M4.54606 8.78018C4.86632 8.69324 5.18141 8.61142 5.15558 8.28411C5.11942 7.79315 4.38594 7.46073 4.2413 6.99023C4.07085 6.4379 4.37561 5.78329 3.47166 5.85489C3.3167 5.86512 3.17723 5.8958 3.03777 5.91626L4.54606 8.78018Z" fill="#FFC401"/>
<path d="M12.6919 8.5553C12.5937 8.45813 12.4749 8.40699 12.3148 8.43256C12.134 8.46325 11.726 8.6985 11.5555 8.78544C11.2662 8.93886 11.1009 9.14343 11.0751 9.42982C11.0493 9.7469 11.2662 10.1407 10.8168 10.2327C10.6051 10.2737 10.5947 10.0128 10.352 10.2532C10.2641 10.3401 10.259 10.5191 10.2383 10.6419C10.1557 11.1891 10.1557 11.8437 9.84574 12.3142C9.48417 12.2426 9.11226 11.409 8.73518 11.8642C8.39426 12.2733 9.17941 12.7029 9.42218 12.9688C9.59264 13.158 9.68045 13.4393 9.85091 13.6234C10.0369 13.828 10.2693 14.0121 10.4656 14.2218C10.5276 14.2883 10.5792 14.3496 10.6309 14.4059C10.6825 14.2678 10.7239 14.1195 10.7497 13.9558C10.8168 13.6388 10.8375 12.6824 10.8117 12.5239C11.0441 10.6368 12.3045 9.37357 12.32 9.35822C12.5369 9.14343 12.7642 8.81101 12.6919 8.5553Z" fill="#FF0055"/>
<path d="M7.66076 9.89024C7.98618 10.0795 8.43041 10.0437 8.78682 9.96184L8.41491 9.33791L6.70516 4.97042C6.44173 5.45115 6.35908 6.14156 6.50888 6.56604C6.61735 6.878 6.77748 7.11837 6.85496 7.44056C6.9376 7.78321 6.98926 8.0338 7.17521 8.34576C7.356 8.65261 7.42832 8.82649 7.42315 9.1896C7.42315 9.5169 7.34567 9.70613 7.66076 9.89024Z" fill="#3AE82C"/>
</svg>
