<svg width="23" height="24" viewBox="0 0 23 24" fill="none" xmlns="http://www.w3.org/2000/svg">
<path d="M10.5036 0.325037C7.6255 1.08564 5.09941 3.14967 4.25046 5.73685C3.07646 4.63017 1.52827 3.87154 0.0488424 4.25483C2.36036 2.30956 4.73843 0.0838517 7.99075 0.0131371C8.85949 -0.0628614 9.79563 0.210726 10.5039 0.325274L10.5036 0.325037ZM13.0266 1.26124C15.3085 3.38629 16.3024 6.50518 16.6882 9.05226C15.2815 8.20571 13.6435 7.78983 11.9763 7.86274L9.85578 15.7513L12.9284 15.2735V15.761C12.7874 15.8511 12.666 15.9643 12.5358 16.0731C12.4354 16.1568 12.332 16.252 12.2314 16.3461L9.24702 16.9408C8.75885 16.6573 8.2667 16.3434 7.81369 16.0729L8.45188 15.9753L10.7195 7.65761C9.15724 6.61747 7.27327 6.13595 5.36934 6.29254C6.92432 2.79516 9.184 1.49641 13.0262 1.26115L13.0266 1.26124ZM15.1471 1.45619C16.2286 1.88199 17.1347 2.0267 18.043 2.54832C20.822 4.14402 21.7817 7.57176 22.6667 9.96884C21.53 8.88286 19.6663 8.86527 17.9938 9.34482C17.7015 6.99336 16.9819 3.90064 15.1468 1.45625L15.1471 1.45619ZM6.28262 13.7032C6.28262 14.565 5.57945 15.2635 4.71201 15.2635C3.84456 15.2635 3.14139 14.565 3.14139 13.7032C3.14139 12.8415 3.84456 12.1432 4.71201 12.1432C5.58271 12.1534 6.26373 12.8292 6.28262 13.7032ZM6.01757 15.8972C6.64586 15.8972 10.1013 18.3934 10.7295 18.3934C11.3578 18.3934 12.9284 16.2092 13.5567 16.2092C14.0888 16.2092 15.5226 17.7698 16.5213 19.0076H13.1934C13.0274 19.0045 12.8748 19.1547 12.8748 19.3195C12.8748 19.4842 13.0274 19.6338 13.1934 19.6316C15.4141 19.6281 17.6206 19.6413 19.8395 19.6413C20.1536 19.6413 20.4678 19.9534 20.4678 20.5773C20.4678 21.2013 20.1536 21.5135 19.8395 21.5135H8.53073L5.0753 18.7052L4.44701 20.5773H6.01762V21.5135H1.9339C1.9339 20.2654 4.13275 15.897 4.76104 15.897L6.01757 15.8972ZM22.6182 22.1279V24H0V22.1279H22.6182Z" fill="#333333"/>
</svg>
