<svg width="21" height="22" viewBox="0 0 21 22" fill="none" xmlns="http://www.w3.org/2000/svg">
<path d="M0.677383 4.25975C0.907706 4.23265 1.13125 4.20555 1.3548 4.18523V17.8962C1.13125 17.9504 0.907706 18.0114 0.677383 18.0723V4.25975ZM21 4.17846V8.22265C20.9491 9.80024 20.7149 11.3666 20.3022 12.8901C19.9093 14.3588 19.6887 15.8684 19.6451 17.3881C18.6967 17.7268 18.5748 18.831 16.739 18.9394C12.688 19.1697 10.7506 17.5778 6.57771 17.3814C5.28333 17.3226 3.98639 17.4044 2.70964 17.6252V4.09039C3.98137 4.02641 5.25609 4.05585 6.52351 4.17846C10.6693 4.57813 12.3629 5.75007 15.7161 5.55362C17.5486 5.43418 19.3417 4.96751 21 4.17846Z" fill="#F7991D"/>
<path d="M0.677383 8.22282C0.900932 8.19573 1.12448 8.16863 1.3548 8.14831V17.8964C1.13125 17.9506 0.907706 18.0115 0.677383 18.0725V8.22282Z" fill="#E0E0E2"/>
<path d="M21 8.22262V18.0655C19.6283 18.5572 18.1936 18.8515 16.7391 18.9394C12.6881 19.1697 10.7507 17.5778 6.57777 17.3813C5.28339 17.3226 3.98645 17.4043 2.7097 17.6252V8.05326C3.99948 7.99649 5.29174 8.05543 6.57099 8.22939C8.00094 8.43282 9.41068 8.75919 10.7845 9.20488C12.1462 9.70014 13.5831 9.95681 15.032 9.96359C17.077 9.88548 19.0712 9.30376 20.8374 8.27004C20.886 8.23893 20.9424 8.22246 21 8.22262Z" fill="white"/>
<path d="M0.677383 12.5445C0.900932 12.5174 1.13125 12.4903 1.3548 12.4767V17.8961C1.13125 17.9503 0.907706 18.0113 0.677383 18.0722V12.5445ZM21 12.5648V18.0655C19.6282 18.5572 18.1936 18.8514 16.739 18.9393C12.688 19.1696 10.7506 17.5777 6.57771 17.3813C5.28333 17.3225 3.98639 17.4043 2.70964 17.6251V12.3887C3.99962 12.3343 5.29187 12.3955 6.57093 12.5716C7.99869 12.7749 9.40619 13.1013 10.7777 13.5471C12.142 14.0411 13.5809 14.2977 15.0319 14.3058C16.8741 14.2447 18.6774 13.7603 20.3022 12.89C20.4784 12.8087 20.6613 12.7138 20.8374 12.6122C20.8859 12.5811 20.9423 12.5646 21 12.5648Z" fill="#37B678"/>
<path d="M2.70968 12.3887V17.6252C2.28291 17.6929 1.82904 17.7877 1.35484 17.8961V12.4768C1.80871 12.4294 2.25581 12.4023 2.70968 12.3887Z" fill="#00A653"/>
<path d="M2.70968 8.0532V12.3887C2.25581 12.4022 1.80871 12.4293 1.35484 12.4767V8.14804C1.80871 8.10062 2.25581 8.06675 2.70968 8.0532Z" fill="#D9D8DA"/>
<path d="M2.70968 4.09011V8.05302C2.25581 8.06657 1.80871 8.10044 1.35484 8.14786V4.18495C1.82226 4.13753 2.27613 4.10366 2.70968 4.09011Z" fill="#E37626"/>
<path d="M2.03222 2.22746H0.677383V21.6694H2.03222V2.22746Z" fill="#8B8891"/>
<path d="M2.03222 2.22746V3.53488C1.82656 3.65468 1.59281 3.7178 1.3548 3.7178C1.11679 3.7178 0.883043 3.65468 0.677383 3.53488V2.22746H2.03222Z" fill="#58565D"/>
<path d="M1.35484 3.04028C2.1031 3.04028 2.70968 2.4337 2.70968 1.68544C2.70968 0.937186 2.1031 0.330605 1.35484 0.330605C0.606582 0.330605 0 0.937186 0 1.68544C0 2.4337 0.606582 3.04028 1.35484 3.04028Z" fill="#8B8891"/>
<path d="M11.0084 13.5457C10.8924 13.5469 10.7765 13.5375 10.6622 13.5177C10.3478 13.4641 10.0492 13.3411 9.78838 13.1576C9.60385 13.0217 9.4407 12.859 9.30435 12.6748C9.11517 12.4131 8.99029 12.1105 8.93983 11.7916C8.90294 11.5635 8.90326 11.3309 8.94078 11.1029C8.9944 10.7887 9.11742 10.4904 9.30089 10.2297C9.43677 10.0453 9.59925 9.88211 9.78302 9.74538C10.0468 9.55967 10.3488 9.43524 10.6669 9.38117C10.8995 9.33861 11.1382 9.34203 11.3694 9.39126C11.6801 9.43936 11.9742 9.56278 12.2262 9.75074C12.4151 9.87979 12.5791 10.042 12.7102 10.2294C12.8989 10.49 13.0246 10.7908 13.0773 11.1082C13.1142 11.3363 13.1138 11.5689 13.0763 11.7969C13.0229 12.1135 12.8968 12.4135 12.708 12.6732C12.5755 12.8617 12.4099 13.0245 12.2193 13.1538C11.9618 13.3434 11.6618 13.4668 11.3455 13.5133C11.2349 13.538 11.1217 13.5489 11.0084 13.5457ZM11.0084 9.8381C10.9224 9.83678 10.8365 9.84353 10.7517 9.85828C10.5053 9.89926 10.2711 9.99494 10.0665 10.1383C9.92458 10.2443 9.79891 10.3705 9.69347 10.5129C9.55264 10.7146 9.4585 10.9451 9.41787 11.1877C9.39002 11.3596 9.3897 11.5348 9.41692 11.7067C9.45438 11.9525 9.54959 12.186 9.69473 12.3879C9.80103 12.5315 9.92802 12.6586 10.0716 12.765C10.2733 12.9057 10.5038 12.9998 10.7464 13.0406C10.9135 13.0726 11.0853 13.072 11.2521 13.0387C11.5013 13.0035 11.7378 12.9071 11.9405 12.7581C12.0863 12.6596 12.213 12.5353 12.3142 12.3913C12.4606 12.1901 12.5582 11.9576 12.5992 11.7121C12.6146 11.6255 12.6216 11.5377 12.6204 11.4497C12.6217 11.3637 12.6149 11.2778 12.6002 11.1931C12.56 10.9469 12.4629 10.7135 12.3164 10.5116C12.2165 10.3686 12.0915 10.2449 11.9474 10.1465C11.75 9.99896 11.5192 9.90255 11.2754 9.86587C11.188 9.84541 11.0982 9.83607 11.0084 9.83808V9.8381Z" fill="#3F6DB4"/>
<path d="M11.3105 9.62575V13.2732C11.2114 13.2954 11.11 13.3056 11.0085 13.3033C10.9074 13.3045 10.8063 13.2965 10.7066 13.2792V9.61974C10.8063 9.60245 10.9074 9.59435 11.0085 9.59556C11.11 9.59334 11.2114 9.60347 11.3105 9.62575Z" fill="#3F6DB4"/>
<path d="M12.8624 11.4499C12.8636 11.5511 12.8556 11.6522 12.8383 11.7519H9.17879C9.1466 11.5519 9.1466 11.348 9.17879 11.148H12.8383C12.8556 11.2477 12.8636 11.3488 12.8624 11.4499Z" fill="#3F6DB4"/>
<path d="M12.5121 12.531C12.3959 12.6966 12.2506 12.8398 12.0834 12.9538L9.49883 10.3692C9.61982 10.2059 9.76429 10.0614 9.92755 9.94043L10.7066 10.7194L11.0085 11.0214L11.1353 11.1482L11.3105 11.3293L12.5121 12.531Z" fill="#3F6DB4"/>
<path d="M12.5122 10.369L11.3105 11.5707L11.1353 11.7519L11.0085 11.8787L10.7066 12.1806L9.92755 12.9596C9.76429 12.8386 9.61982 12.6941 9.49883 12.5308L10.5798 11.45L10.7066 11.3292V11.3231L12.0834 9.94631C12.2506 10.0602 12.3959 10.2034 12.5122 10.369Z" fill="#3F6DB4"/>
</svg>
