<svg width="21" height="22" viewBox="0 0 21 22" fill="none" xmlns="http://www.w3.org/2000/svg">
<g clip-path="url(#clip0_3_1271)">
<path d="M17.2821 4.52586C17.2347 4.52584 17.188 4.51487 17.1455 4.49383C17.1031 4.47278 17.066 4.44223 17.0373 4.40453C17.0086 4.36684 16.989 4.32303 16.98 4.27651C16.971 4.22999 16.9728 4.18202 16.9854 4.13634C17.2592 3.14442 17.7114 2.49756 18.3296 2.21377C18.5323 2.12515 18.7477 2.06904 18.9678 2.04754C19.1488 2.0226 19.305 2.00111 19.4955 1.90505C19.89 1.70612 20.1949 1.30294 20.4018 0.706776C20.4286 0.629699 20.4849 0.566408 20.5583 0.530825C20.6317 0.495243 20.7162 0.490283 20.7933 0.517037C20.8704 0.543792 20.9337 0.600069 20.9693 0.673488C21.0049 0.746908 21.0098 0.831455 20.9831 0.908531C20.7219 1.66088 20.3146 2.181 19.7725 2.45441C19.4905 2.59657 19.2575 2.62869 19.0518 2.65703C18.8884 2.6795 18.7473 2.69895 18.5863 2.77286C18.1408 2.9774 17.8017 3.49124 17.5784 4.29999C17.5605 4.36486 17.5219 4.42208 17.4683 4.46287C17.4148 4.50367 17.3494 4.52579 17.2821 4.52586ZM0.30786 21.5001C0.260478 21.5001 0.213741 21.4891 0.171289 21.4681C0.128836 21.447 0.0918134 21.4165 0.0631023 21.3788C0.0343912 21.3411 0.0147665 21.2973 0.00575601 21.2507C-0.00325449 21.2042 -0.00140767 21.1563 0.0111527 21.1106C0.284932 20.1187 0.73717 19.4718 1.3554 19.188C1.55807 19.0994 1.77345 19.0433 1.9936 19.0218C2.17452 18.9968 2.33079 18.9753 2.52127 18.8792C2.91576 18.6803 3.22067 18.2772 3.42759 17.681C3.45434 17.6039 3.51062 17.5406 3.58404 17.5051C3.65746 17.4695 3.74201 17.4645 3.81908 17.4913C3.89616 17.518 3.95945 17.5743 3.99503 17.6477C4.03062 17.7211 4.03558 17.8057 4.00882 17.8828C3.74768 18.6352 3.34039 19.1552 2.79829 19.4286C2.51631 19.5708 2.28321 19.6029 2.0776 19.6312C1.9142 19.6538 1.77306 19.6732 1.61207 19.7471C1.16652 19.9517 0.827446 20.4655 0.604198 21.2742C0.586295 21.3391 0.547621 21.3963 0.494098 21.4371C0.440576 21.4779 0.375157 21.5 0.30786 21.5001Z" fill="#F7991D"/>
<path d="M3.63973 17.8603C3.47338 17.6939 3.37993 17.4683 3.37993 17.233C3.37993 16.9978 3.47338 16.7722 3.63973 16.6058L5.09021 15.1554L6.34463 16.4098L4.8942 17.8603C4.72784 18.0266 4.50222 18.1201 4.26697 18.1201C4.03171 18.1201 3.80609 18.0266 3.63973 17.8603Z" fill="#FDD402"/>
<path d="M4.46003 17.8603C4.29368 17.6939 4.20023 17.4683 4.20023 17.233C4.20023 16.9978 4.29368 16.7722 4.46003 16.6058L5.50035 15.5655L5.0902 15.1554L3.63972 16.6058C3.55735 16.6882 3.492 16.786 3.44742 16.8936C3.40284 17.0012 3.3799 17.1166 3.3799 17.233C3.3799 17.3495 3.40284 17.4649 3.44742 17.5725C3.492 17.6801 3.55735 17.7779 3.63972 17.8603C3.7732 17.9937 3.94576 18.0811 4.13233 18.1098C4.31889 18.1385 4.50973 18.1069 4.67713 18.0197C4.59706 17.9779 4.52385 17.9242 4.46003 17.8603Z" fill="#FBBF13"/>
<path d="M15.949 6.80545L14.6945 5.55099L16.145 4.10056C16.3113 3.93422 16.5369 3.84077 16.7722 3.84077C17.0074 3.84077 17.2331 3.93422 17.3994 4.10056C17.5658 4.26691 17.6592 4.49253 17.6592 4.72779C17.6592 4.96304 17.5658 5.18867 17.3994 5.35502L15.949 6.80545Z" fill="#FDD402"/>
<path d="M16.5551 4.92087C16.6975 4.77861 16.884 4.68902 17.0841 4.6668C17.2841 4.64458 17.4858 4.69106 17.6559 4.7986C17.6664 4.67061 17.6489 4.54187 17.6046 4.42132C17.5603 4.30078 17.4903 4.19132 17.3994 4.10056C17.2331 3.93422 17.0075 3.84077 16.7722 3.84077C16.537 3.84077 16.3114 3.93422 16.145 4.10056L14.6945 5.55099L15.3098 6.16623L16.5551 4.92087Z" fill="#FBBF13"/>
<path d="M6.35353 16.8265C7.25484 16.8265 7.9855 16.0959 7.9855 15.1945C7.9855 14.2932 7.25484 13.5626 6.35353 13.5626C5.45222 13.5626 4.72156 14.2932 4.72156 15.1945C4.72156 16.0959 5.45222 16.8265 6.35353 16.8265Z" fill="#F7991D"/>
<path d="M5.77923 16.0422C5.64713 15.8248 5.56769 15.5795 5.54723 15.3259C5.52678 15.0723 5.56589 14.8174 5.66143 14.5817C5.75697 14.3459 5.90631 14.1357 6.09751 13.9679C6.28872 13.8001 6.51651 13.6793 6.7627 13.6151C6.52142 13.5526 6.26903 13.5462 6.02489 13.5964C5.78075 13.6466 5.55135 13.752 5.35429 13.9046C5.15723 14.0572 4.99775 14.253 4.88808 14.4768C4.77841 14.7006 4.72147 14.9466 4.72162 15.1958C4.72177 15.4451 4.77901 15.691 4.88896 15.9146C4.9989 16.1383 5.15862 16.3339 5.35587 16.4862C5.55311 16.6386 5.78264 16.7438 6.02684 16.7936C6.27104 16.8435 6.52343 16.8368 6.76463 16.774C6.35317 16.6682 5.99948 16.4055 5.77923 16.0422Z" fill="#E37626"/>
<path d="M8.98123 18.3395C9.88254 18.3395 10.6132 17.6088 10.6132 16.7075C10.6132 15.8062 9.88254 15.0755 8.98123 15.0755C8.07992 15.0755 7.34926 15.8062 7.34926 16.7075C7.34926 17.6088 8.07992 18.3395 8.98123 18.3395Z" fill="#FDD402"/>
<path d="M8.22519 17.1299C8.11317 16.7118 8.17182 16.2663 8.38823 15.8915C8.60464 15.5167 8.96109 15.2432 9.37917 15.1311C9.38327 15.13 9.38745 15.1292 9.39159 15.1281C9.15036 15.0654 8.89796 15.0588 8.65376 15.1088C8.40956 15.1588 8.18006 15.264 7.98287 15.4165C7.78567 15.5689 7.62602 15.7645 7.51617 15.9883C7.40632 16.212 7.34918 16.458 7.34915 16.7072C7.34912 16.9565 7.40619 17.2024 7.51598 17.4262C7.62578 17.65 7.78537 17.8456 7.98253 17.9981C8.17969 18.1507 8.40916 18.256 8.65334 18.306C8.89753 18.3561 9.14993 18.3495 9.39118 18.2868C9.11186 18.2144 8.85676 18.0691 8.65191 17.8658C8.44707 17.6626 8.29982 17.4086 8.22519 17.1299Z" fill="#FBBF13"/>
<path d="M12.0071 18.3399C12.9086 18.3399 13.6395 17.609 13.6395 16.7075C13.6395 15.8059 12.9086 15.0751 12.0071 15.0751C11.1055 15.0751 10.3747 15.8059 10.3747 16.7075C10.3747 17.609 11.1055 18.3399 12.0071 18.3399Z" fill="#F7991D"/>
<path d="M14.6746 16.8265C15.576 16.8265 16.3066 16.0959 16.3066 15.1945C16.3066 14.2932 15.576 13.5626 14.6746 13.5626C13.7733 13.5626 13.0427 14.2932 13.0427 15.1945C13.0427 16.0959 13.7733 16.8265 14.6746 16.8265Z" fill="#FDD402"/>
<path d="M16.1876 14.1988C17.0889 14.1988 17.8195 13.4682 17.8195 12.5668C17.8195 11.6655 17.0889 10.9349 16.1876 10.9349C15.2862 10.9349 14.5556 11.6655 14.5556 12.5668C14.5556 13.4682 15.2862 14.1988 16.1876 14.1988Z" fill="#F7991D"/>
<path d="M16.1876 11.1335C17.0891 11.1335 17.8199 10.4027 17.8199 9.50116C17.8199 8.59962 17.0891 7.86878 16.1876 7.86878C15.286 7.86878 14.5552 8.59962 14.5552 9.50116C14.5552 10.4027 15.286 11.1335 16.1876 11.1335Z" fill="#FDD402"/>
<path d="M14.6746 8.50539C15.576 8.50539 16.3066 7.77473 16.3066 6.87342C16.3066 5.97211 15.576 5.24145 14.6746 5.24145C13.7733 5.24145 13.0427 5.97211 13.0427 6.87342C13.0427 7.77473 13.7733 8.50539 14.6746 8.50539Z" fill="#F7991D"/>
<path d="M12.0071 6.99249C12.9084 6.99249 13.639 6.26183 13.639 5.36052C13.639 4.4592 12.9084 3.72855 12.0071 3.72855C11.1058 3.72855 10.3751 4.4592 10.3751 5.36052C10.3751 6.26183 11.1058 6.99249 12.0071 6.99249Z" fill="#FDD402"/>
<path d="M8.98123 6.9929C9.88277 6.9929 10.6136 6.26205 10.6136 5.36051C10.6136 4.45898 9.88277 3.72813 8.98123 3.72813C8.07969 3.72813 7.34885 4.45898 7.34885 5.36051C7.34885 6.26205 8.07969 6.9929 8.98123 6.9929Z" fill="#F7991D"/>
<path d="M6.35353 8.50539C7.25484 8.50539 7.9855 7.77473 7.9855 6.87342C7.9855 5.97211 7.25484 5.24145 6.35353 5.24145C5.45222 5.24145 4.72156 5.97211 4.72156 6.87342C4.72156 7.77473 5.45222 8.50539 6.35353 8.50539Z" fill="#FDD402"/>
<path d="M6.75141 8.44981C6.40336 8.35659 6.09596 8.15079 5.87714 7.86452C5.65833 7.57825 5.54042 7.22761 5.54179 6.8673C5.54317 6.50698 5.66376 6.15725 5.88476 5.87267C6.10575 5.58808 6.41472 5.38464 6.76347 5.29407C6.52221 5.2314 6.26979 5.22482 6.02559 5.27486C5.7814 5.3249 5.55191 5.43021 5.35474 5.58273C5.15757 5.73524 4.99796 5.9309 4.88816 6.15468C4.77836 6.37847 4.72128 6.62443 4.72131 6.87371C4.72135 7.12298 4.77848 7.36893 4.88834 7.59269C4.9982 7.81644 5.15786 8.01206 5.35507 8.16452C5.55228 8.31698 5.7818 8.42224 6.02601 8.47221C6.27022 8.52219 6.52263 8.51555 6.76388 8.45281C6.7597 8.4517 6.75556 8.45092 6.75141 8.44981Z" fill="#FBBF13"/>
<path d="M4.84059 11.1331C5.7419 11.1331 6.47256 10.4025 6.47256 9.50116C6.47256 8.59985 5.7419 7.86919 4.84059 7.86919C3.93928 7.86919 3.20862 8.59985 3.20862 9.50116C3.20862 10.4025 3.93928 11.1331 4.84059 11.1331Z" fill="#F7991D"/>
<path d="M4.08454 9.92355C3.97252 9.50547 4.03117 9.06002 4.24758 8.68519C4.46399 8.31035 4.82044 8.03684 5.23851 7.92481C5.24261 7.92371 5.2468 7.92289 5.25094 7.92182C5.0097 7.8591 4.7573 7.85247 4.5131 7.90245C4.26891 7.95243 4.03941 8.05769 3.84221 8.21014C3.64501 8.3626 3.48536 8.55821 3.37551 8.78196C3.26566 9.00571 3.20853 9.25164 3.2085 9.5009C3.20846 9.75016 3.26553 9.99612 3.37533 10.2199C3.48512 10.4437 3.64472 10.6393 3.84187 10.7918C4.03903 10.9443 4.2685 11.0497 4.51269 11.0997C4.75687 11.1497 5.00928 11.1432 5.25053 11.0805C4.9712 11.0081 4.7161 10.8628 4.51126 10.6595C4.30641 10.4563 4.15916 10.2023 4.08454 9.92355Z" fill="#E37626"/>
<path d="M4.84059 14.1992C5.74213 14.1992 6.47297 13.4684 6.47297 12.5668C6.47297 11.6653 5.74213 10.9345 4.84059 10.9345C3.93905 10.9345 3.20821 11.6653 3.20821 12.5668C3.20821 13.4684 3.93905 14.1992 4.84059 14.1992Z" fill="#FDD402"/>
<path d="M4.50663 13.7211C4.30323 13.5177 4.15719 13.2643 4.08328 12.9863C4.00937 12.7083 4.01022 12.4158 4.08575 12.1382C4.16128 11.8607 4.3088 11.6081 4.51339 11.4059C4.71797 11.2038 4.97234 11.0592 5.25074 10.987C5.00943 10.9243 4.75696 10.9177 4.51271 10.9678C4.26846 11.0178 4.03892 11.1231 3.8417 11.2757C3.64448 11.4282 3.48483 11.6239 3.37498 11.8477C3.26514 12.0715 3.20802 12.3175 3.20802 12.5669C3.20802 12.8162 3.26514 13.0622 3.37498 13.286C3.48483 13.5098 3.64448 13.7055 3.8417 13.858C4.03892 14.0106 4.26846 14.1159 4.51271 14.1659C4.75696 14.216 5.00943 14.2094 5.25074 14.1467C4.96906 14.074 4.71208 13.927 4.50663 13.7211Z" fill="#FBBF13"/>
<path d="M11.3145 16.1827C14.147 16.1827 16.4433 13.8865 16.4433 11.0539C16.4433 8.22134 14.147 5.92509 11.3145 5.92509C8.48193 5.92509 6.18568 8.22134 6.18568 11.0539C6.18568 13.8865 8.48193 16.1827 11.3145 16.1827Z" fill="#FBBF13"/>
<path d="M11.3145 16.1827C14.147 16.1827 16.4433 13.8865 16.4433 11.0539C16.4433 8.22134 14.147 5.92509 11.3145 5.92509C8.48193 5.92509 6.18568 8.22134 6.18568 11.0539C6.18568 13.8865 8.48193 16.1827 11.3145 16.1827Z" fill="#FBBF13"/>
<path d="M10.4859 16.1154C11.4513 16.273 12.4417 16.152 13.3408 15.7667C13.1708 15.5255 12.9385 15.335 12.6688 15.2154C12.3991 15.0957 12.1019 15.0515 11.8091 15.0872C11.5162 15.123 11.2384 15.2375 11.0055 15.4186C10.7725 15.5996 10.5929 15.8405 10.4859 16.1154Z" fill="#E37626"/>
<path d="M15.6104 13.8571C15.3199 13.6537 14.971 13.5505 14.6166 13.5631C14.2622 13.5757 13.9215 13.7034 13.6462 13.9269C13.3708 14.1504 13.1758 14.4575 13.0906 14.8018C13.0054 15.146 13.0346 15.5086 13.1739 15.8348C14.1721 15.4451 15.0238 14.7538 15.6104 13.8571Z" fill="#FBBF13"/>
<path d="M15.7652 10.9905C15.4428 11.0768 15.1547 11.2598 14.9396 11.515C14.7245 11.7701 14.5929 12.0851 14.5624 12.4174C14.5318 12.7497 14.6039 13.0833 14.7689 13.3734C14.9339 13.6634 15.1839 13.8959 15.4852 14.0395C16.1287 13.1415 16.4644 12.0594 16.442 10.9549C16.2164 10.9191 15.9858 10.9312 15.7652 10.9905Z" fill="#E37626"/>
<path d="M15.0333 8.3469C14.7895 8.59061 14.6292 8.90523 14.5752 9.24567C14.5213 9.58611 14.5765 9.9349 14.733 10.242C14.8894 10.5492 15.1391 10.7989 15.4462 10.9554C15.7533 11.1119 16.1021 11.1671 16.4426 11.1132C16.4565 10.0094 16.1131 8.93074 15.4636 8.03818C15.3043 8.11694 15.159 8.22122 15.0333 8.3469H15.0333Z" fill="#FBBF13"/>
<path d="M15.592 8.22254C15.0029 7.33503 14.1531 6.65198 13.1597 6.26749C13.031 6.58899 13.0079 6.94309 13.0938 7.27856C13.1797 7.61404 13.3701 7.91348 13.6375 8.13358C13.9048 8.35367 14.2353 8.483 14.581 8.50285C14.9267 8.5227 15.2698 8.43204 15.5606 8.244C15.5713 8.23706 15.5815 8.22968 15.592 8.22254Z" fill="#E37626"/>
<path d="M10.5017 5.98994C10.6128 6.25603 10.7925 6.48791 11.0224 6.66195C11.2523 6.83599 11.5242 6.94597 11.8105 6.9807C12.0967 7.01542 12.3871 6.97364 12.652 6.85962C12.9168 6.7456 13.1467 6.5634 13.3182 6.3316C12.43 5.95599 11.454 5.8376 10.5017 5.98994Z" fill="#FBBF13"/>
<path d="M10.4942 16.1827C13.3267 16.1827 15.623 13.8865 15.623 11.0539C15.623 8.22134 13.3267 5.92509 10.4942 5.92509C7.66161 5.92509 5.36537 8.22134 5.36537 11.0539C5.36537 13.8865 7.66161 16.1827 10.4942 16.1827Z" fill="#EF542A"/>
<path d="M7.7289 14.6805C7.03753 13.9892 6.55817 13.1147 6.3473 12.16C6.13643 11.2054 6.20284 10.2103 6.53871 9.29211C6.87457 8.37393 7.4659 7.57088 8.243 6.9776C9.0201 6.38432 9.9506 6.02553 10.9248 5.94351C10.2175 5.88385 9.50553 5.97166 8.83391 6.20139C8.16229 6.43113 7.54567 6.79778 7.02308 7.27814C6.50049 7.75851 6.0833 8.34213 5.79793 8.99206C5.51255 9.64199 5.3652 10.3441 5.3652 11.0539C5.3652 11.7637 5.51255 12.4658 5.79793 13.1158C6.0833 13.7657 6.50049 14.3493 7.02308 14.8297C7.54567 15.31 8.16229 15.6767 8.83391 15.9064C9.50553 16.1362 10.2175 16.224 10.9248 16.1643C9.71725 16.0644 8.58449 15.5385 7.7289 14.6805Z" fill="#ED2D24"/>
<path d="M10.4942 12.2483C11.1538 12.2483 11.6886 11.7136 11.6886 11.0539C11.6886 10.3942 11.1538 9.85948 10.4942 9.85948C9.83452 9.85948 9.29976 10.3942 9.29976 11.0539C9.29976 11.7136 9.83452 12.2483 10.4942 12.2483Z" fill="#FDD402"/>
<path d="M10.4699 11.8985C10.328 11.7566 10.2241 11.5812 10.1679 11.3886C10.1117 11.1959 10.1049 10.9922 10.1482 10.7962C10.1915 10.6003 10.2835 10.4184 10.4156 10.2674C10.5478 10.1163 10.7159 10.001 10.9043 9.93212C10.7239 9.86613 10.5301 9.84466 10.3396 9.86953C10.149 9.8944 9.96729 9.96488 9.8098 10.075C9.6523 10.1851 9.5237 10.3316 9.4349 10.502C9.34611 10.6724 9.29974 10.8617 9.29974 11.0539C9.29974 11.2461 9.34611 11.4354 9.4349 11.6058C9.5237 11.7762 9.6523 11.9227 9.8098 12.0328C9.96729 12.1429 10.149 12.2134 10.3396 12.2383C10.5301 12.2631 10.7239 12.2417 10.9043 12.1757C10.741 12.1161 10.5927 12.0215 10.4699 11.8985Z" fill="#FBBF13"/>
<path d="M8.2845 13.7811C8.57035 13.7811 8.80207 13.5494 8.80207 13.2636C8.80207 12.9777 8.57035 12.746 8.2845 12.746C7.99865 12.746 7.76692 12.9777 7.76692 13.2636C7.76692 13.5494 7.99865 13.7811 8.2845 13.7811Z" fill="#E0E0E2"/>
<path d="M9.67796 14.6171C9.96374 14.6171 10.1954 14.3855 10.1954 14.0997C10.1954 13.8139 9.96374 13.5822 9.67796 13.5822C9.39218 13.5822 9.16051 13.8139 9.16051 14.0997C9.16051 14.3855 9.39218 14.6171 9.67796 14.6171Z" fill="#E0E0E2"/>
<path d="M11.3103 14.6171C11.5961 14.6171 11.8278 14.3855 11.8278 14.0997C11.8278 13.8139 11.5961 13.5822 11.3103 13.5822C11.0246 13.5822 10.7929 13.8139 10.7929 14.0997C10.7929 14.3855 11.0246 14.6171 11.3103 14.6171Z" fill="#E0E0E2"/>
<path d="M12.7436 13.7811C13.0295 13.7811 13.2612 13.5494 13.2612 13.2636C13.2612 12.9777 13.0295 12.746 12.7436 12.746C12.4578 12.746 12.2261 12.9777 12.2261 13.2636C12.2261 13.5494 12.4578 13.7811 12.7436 13.7811Z" fill="#E0E0E2"/>
<path d="M13.5399 12.3876C13.8257 12.3876 14.0574 12.1559 14.0574 11.8701C14.0574 11.5843 13.8257 11.3527 13.5399 11.3527C13.2541 11.3527 13.0225 11.5843 13.0225 11.8701C13.0225 12.1559 13.2541 12.3876 13.5399 12.3876Z" fill="#E0E0E2"/>
<path d="M13.5399 10.7552C13.8257 10.7552 14.0574 10.5235 14.0574 10.2377C14.0574 9.95194 13.8257 9.72027 13.5399 9.72027C13.2541 9.72027 13.0225 9.95194 13.0225 10.2377C13.0225 10.5235 13.2541 10.7552 13.5399 10.7552Z" fill="#E0E0E2"/>
<path d="M12.7436 9.32201C13.0295 9.32201 13.2612 9.09028 13.2612 8.80443C13.2612 8.51858 13.0295 8.28686 12.7436 8.28686C12.4578 8.28686 12.2261 8.51858 12.2261 8.80443C12.2261 9.09028 12.4578 9.32201 12.7436 9.32201Z" fill="#E0E0E2"/>
<path d="M11.3103 8.48578C11.5961 8.48578 11.8278 8.25411 11.8278 7.96833C11.8278 7.68255 11.5961 7.45087 11.3103 7.45087C11.0246 7.45087 10.7929 7.68255 10.7929 7.96833C10.7929 8.25411 11.0246 8.48578 11.3103 8.48578Z" fill="#E0E0E2"/>
<path d="M9.67796 8.48578C9.96374 8.48578 10.1954 8.25411 10.1954 7.96833C10.1954 7.68255 9.96374 7.45087 9.67796 7.45087C9.39218 7.45087 9.16051 7.68255 9.16051 7.96833C9.16051 8.25411 9.39218 8.48578 9.67796 8.48578Z" fill="#E0E0E2"/>
<path d="M8.2845 9.32201C8.57035 9.32201 8.80207 9.09028 8.80207 8.80443C8.80207 8.51858 8.57035 8.28686 8.2845 8.28686C7.99865 8.28686 7.76692 8.51858 7.76692 8.80443C7.76692 9.09028 7.99865 9.32201 8.2845 9.32201Z" fill="#E0E0E2"/>
<path d="M7.44839 10.7552C7.73417 10.7552 7.96584 10.5235 7.96584 10.2377C7.96584 9.95194 7.73417 9.72027 7.44839 9.72027C7.16261 9.72027 6.93094 9.95194 6.93094 10.2377C6.93094 10.5235 7.16261 10.7552 7.44839 10.7552Z" fill="#E0E0E2"/>
<path d="M7.44839 12.3876C7.73417 12.3876 7.96584 12.1559 7.96584 11.8701C7.96584 11.5843 7.73417 11.3527 7.44839 11.3527C7.16261 11.3527 6.93094 11.5843 6.93094 11.8701C6.93094 12.1559 7.16261 12.3876 7.44839 12.3876Z" fill="#E0E0E2"/>
</g>
<defs>
<clipPath id="clip0_3_1271">
<rect width="21" height="21" fill="white" transform="translate(0 0.5)"/>
</clipPath>
</defs>
</svg>
