<svg width="23" height="20" viewBox="0 0 23 20" fill="none" xmlns="http://www.w3.org/2000/svg">
<path d="M22.8245 6.39095C22.5098 5.9684 21.8806 5.85722 21.4207 6.14633C20.7914 6.54652 20.041 6.92471 19.6538 7.03573C19.3876 6.8133 18.9035 6.34643 18.6131 6.03511C17.6692 5.10115 17.3545 4.78987 16.8705 4.72316L15.2247 4.43403C14.5711 4.32297 11.7393 4.90109 10.9647 5.47933C10.3111 5.96855 9.24612 7.52514 8.9316 7.99216C8.6412 8.43686 8.81054 9.01514 9.27044 9.2819C9.43995 9.37078 9.60929 9.4153 9.80293 9.4153C10.1418 9.4153 10.4806 9.25957 10.6743 8.9706C11.2552 8.05884 11.9812 7.12493 12.1992 6.94699C12.3444 6.85811 12.7075 6.74689 13.119 6.63568C12.659 8.28126 12.1024 10.1046 11.8603 10.8162C11.5941 11.5279 11.1341 12.9511 10.8679 13.3291C9.89983 13.2624 8.22971 12.7509 7.33404 12.4173C6.70478 12.1949 6.00278 12.4618 5.76087 13.0399C5.51876 13.6181 5.80932 14.263 6.43858 14.4853C6.75328 14.5965 9.43991 15.5526 11.1099 15.5526H11.1341C12.7073 15.5304 13.385 13.8403 13.8449 12.4839C14.7647 13.4178 15.5391 14.3295 15.6602 14.7076C15.878 15.3969 16.0475 17.6429 16.0958 18.9104C16.1199 19.5108 16.6524 20 17.306 20H17.3544C18.0321 19.9778 18.5646 19.4663 18.5405 18.8436C18.5163 18.4878 18.3953 15.2856 18.008 14.0849C17.7417 13.2844 16.7736 12.1503 15.8538 11.1941L17.3062 7.50269C18.1049 8.28106 18.5163 8.65905 18.9278 8.83699C19.2182 8.9482 20.017 9.28169 22.5584 7.68062C23.0183 7.39165 23.1394 6.81338 22.8247 6.39088L22.8245 6.39095Z" fill="#5630D3"/>
<path d="M17.2433 0.0577556C18.4519 0.324707 19.1963 1.44137 18.9058 2.55184C18.6152 3.6623 17.3999 4.3462 16.1911 4.07924C14.9824 3.81244 14.238 2.69578 14.5286 1.58516C14.8191 0.4747 16.0344 -0.209208 17.2433 0.0577556Z" fill="#5630D3"/>
<path d="M3.63051 5.3236H8.08404C8.49549 5.3236 8.85866 5.01229 8.85866 4.61193C8.85866 4.21175 8.51981 3.90027 8.08404 3.90027L3.63051 3.90042C3.21906 3.90042 2.8559 4.21173 2.8559 4.61209C2.8559 5.01227 3.19492 5.3236 3.63051 5.3236Z" fill="#5630D3"/>
<path d="M2.20259 7.90306H6.65612C7.06757 7.90306 7.43074 7.59175 7.43074 7.1914C7.43074 6.79121 7.09189 6.47974 6.65612 6.47974L2.20259 6.47989C1.79115 6.47989 1.42798 6.7912 1.42798 7.19156C1.42798 7.59174 1.76683 7.90306 2.20259 7.90306Z" fill="#5630D3"/>
<path d="M5.97856 9.79321C5.97856 9.4152 5.63971 9.08154 5.20394 9.08154L0.774613 9.0817C0.363168 9.0817 0 9.39301 0 9.79336C0 10.1935 0.338847 10.505 0.774613 10.505L5.20394 10.5049C5.6397 10.4827 5.97856 10.1714 5.97856 9.79321Z" fill="#5630D3"/>
</svg>
