<svg width="26" height="22" viewBox="0 0 26 22" fill="none" xmlns="http://www.w3.org/2000/svg">
<path d="M22.0369 11.5789L17.9044 15.6591C17.7221 15.8391 17.4763 15.9401 17.2201 15.9401C16.964 15.9401 16.7181 15.8391 16.5359 15.6591L9.07178 8.29171C9.04904 8.26919 9.03099 8.24238 9.01867 8.21284C9.00634 8.18331 9 8.15162 9 8.11961C9 8.0876 9.00634 8.05591 9.01867 8.02637C9.03099 7.99683 9.04904 7.97003 9.07178 7.94751L17.0486 0.0706409C17.0937 0.025728 17.1549 0.000518799 17.2186 0.000518799C17.2823 0.000518799 17.3434 0.025728 17.3886 0.0706409L25.3654 7.94751C25.3881 7.97003 25.4062 7.99683 25.4185 8.02637C25.4308 8.05591 25.4371 8.0876 25.4371 8.11961C25.4371 8.15162 25.4308 8.18331 25.4185 8.21284C25.4062 8.24238 25.3881 8.26919 25.3654 8.29171L22.0369 11.5789Z" fill="#4F66D0"/>
<path d="M25.3654 7.94751L17.3886 0.0706408C17.3434 0.025728 17.2823 0.000518799 17.2186 0.000518799C17.1549 0.000518799 17.0938 0.025728 17.0486 0.0706408L16.434 0.677439L20.4676 4.66034C20.9252 5.11277 21.2884 5.65148 21.5363 6.24527C21.7842 6.83906 21.9119 7.47614 21.9119 8.11961C21.9119 8.76308 21.7842 9.40015 21.5363 9.99395C21.2884 10.5877 20.9252 11.1264 20.4676 11.5789L16.434 15.5628L16.5344 15.6622C16.7166 15.8423 16.9625 15.9432 17.2186 15.9432C17.4748 15.9432 17.7206 15.8423 17.9028 15.6622L22.0353 11.582L25.3654 8.29171C25.3881 8.26919 25.4062 8.24238 25.4185 8.21284C25.4308 8.1833 25.4372 8.15162 25.4372 8.11961C25.4372 8.0876 25.4308 8.05591 25.4185 8.02637C25.4062 7.99683 25.3881 7.97003 25.3654 7.94751Z" fill="#314DC9"/>
<path d="M25.3654 7.94751L22.4658 5.08405C20.9506 4.33793 19.2937 3.92348 17.6057 3.86836V0.28459L17.3886 0.0706408C17.3434 0.025728 17.2823 0.000518799 17.2186 0.000518799C17.1549 0.000518799 17.0937 0.025728 17.0486 0.0706408L16.821 0.295052V3.86888C15.1365 3.92517 13.4833 4.33941 11.9713 5.08405L9.07178 7.94751C9.04904 7.97003 9.03099 7.99683 9.01867 8.02637C9.00634 8.05591 9 8.0876 9 8.11961C9 8.15162 9.00634 8.1833 9.01867 8.21284C9.03099 8.24238 9.04904 8.26919 9.07178 8.29171L9.11729 8.3367C9.20425 8.32687 9.28535 8.28798 9.34746 8.22632L11.1312 6.46556C12.8267 5.35319 14.7945 4.72668 16.821 4.65406V14.1379C16.821 14.2419 16.8623 14.3417 16.9359 14.4153C17.0095 14.4889 17.1093 14.5302 17.2133 14.5302C17.3174 14.5302 17.4172 14.4889 17.4908 14.4153C17.5643 14.3417 17.6057 14.2419 17.6057 14.1379V4.65354C19.6363 4.72418 21.6086 5.35097 23.3075 6.46556L25.0913 8.22632C25.1533 8.28804 25.2344 8.32695 25.3214 8.3367L25.3669 8.29171C25.3896 8.26909 25.4075 8.2422 25.4197 8.2126C25.4319 8.18301 25.4381 8.15129 25.4379 8.11928C25.4378 8.08728 25.4313 8.05562 25.4188 8.02613C25.4064 7.99665 25.3882 7.96992 25.3654 7.94751Z" fill="#6C7FD8"/>
<path d="M16.821 1.0593L17.6056 1.83454V0.28459L17.3885 0.0706409C17.3434 0.025728 17.2822 0.000518799 17.2185 0.000518799C17.1548 0.000518799 17.0937 0.025728 17.0485 0.0706409L16.821 0.295052V1.0593ZM25.3967 7.98517C25.3874 7.97168 25.3769 7.95907 25.3653 7.94751L22.4658 5.08405C21.6765 4.69568 20.8465 4.39637 19.991 4.19164L20.466 4.66243C20.6711 4.8656 20.8579 5.08651 21.0241 5.32258C21.8256 5.61543 22.5907 5.99965 23.3043 6.46765L25.0881 8.22841C25.1501 8.29014 25.2313 8.32904 25.3183 8.33879L25.3638 8.2938C25.3754 8.28224 25.3859 8.26963 25.3951 8.25614C25.4222 8.2162 25.4368 8.16913 25.4371 8.12089C25.4373 8.07266 25.4233 8.02543 25.3967 7.98517Z" fill="#4F66D0"/>
<path d="M6.76524 19.5484L0.132828 12.1721C0.0867215 12.1208 0.0513173 12.0608 0.0286891 11.9957C0.00606097 11.9305 -0.00333611 11.8615 0.0010484 11.7927C0.0054329 11.7238 0.0235108 11.6565 0.0542231 11.5948C0.0849354 11.533 0.127664 11.478 0.179907 11.433L7.67073 4.98731C7.78731 4.88749 7.93573 4.83263 8.08921 4.83263C8.24269 4.83263 8.39111 4.88749 8.50769 4.98731C9.93785 6.21242 14.5945 10.2288 15.9922 11.4345C16.0444 11.4796 16.0871 11.5346 16.1178 11.5963C16.1484 11.658 16.1664 11.7253 16.1708 11.7941C16.1751 11.8629 16.1657 11.9318 16.143 11.9969C16.1203 12.062 16.0849 12.1219 16.0388 12.1732L9.37761 19.5839L6.76524 19.5484Z" fill="#FEDF30"/>
<path d="M15.9938 11.4329C14.5966 10.2298 9.93994 6.21077 8.50926 4.98566C8.39268 4.88584 8.24425 4.83098 8.09077 4.83098C7.9373 4.83098 7.78887 4.88584 7.67229 4.98566L7.30612 5.29953L7.36942 5.35184C11.4648 8.86865 11.8681 15.0664 8.25869 19.0812L7.82818 19.5603L9.37813 19.5813L16.0409 12.171C16.087 12.1198 16.1223 12.0599 16.145 11.9948C16.1676 11.9297 16.177 11.8608 16.1726 11.792C16.1682 11.7233 16.1501 11.6561 16.1194 11.5944C16.0887 11.5328 16.046 11.4778 15.9938 11.4329Z" fill="#FED402"/>
<path d="M15.9938 11.4327L14.1739 9.86343C13.9887 9.76613 13.802 9.6732 13.6137 9.58462C12.0036 8.82502 10.2542 8.40548 8.47473 8.35219V4.95883C8.36088 4.87398 8.22213 4.82925 8.08017 4.83162C7.93821 4.83398 7.80103 4.88332 7.69007 4.9719V8.35219C5.91335 8.40688 4.16691 8.82675 2.55949 9.58566C2.37536 9.67145 2.19297 9.76212 2.01233 9.85768L0.181469 11.4327C0.0995844 11.5033 0.0418749 11.5978 0.0164484 11.7029C-0.00897808 11.808 -0.000843808 11.9184 0.0397084 12.0186C0.131015 12.0188 0.219496 11.987 0.289751 11.9286C1.27632 11.1157 3.9274 9.26082 7.6885 9.13632V18.5522C7.6885 18.6562 7.72984 18.756 7.80341 18.8296C7.87699 18.9031 7.97678 18.9445 8.08083 18.9445C8.18488 18.9445 8.28467 18.9031 8.35825 18.8296C8.43182 18.756 8.47316 18.6562 8.47316 18.5522V9.13632C12.2395 9.25716 14.8953 11.1147 15.8829 11.9292C15.9532 11.9871 16.0414 12.0187 16.1324 12.0186C16.1733 11.9187 16.182 11.8085 16.1571 11.7034C16.1322 11.5984 16.0751 11.5037 15.9938 11.4327Z" fill="#FEE97D"/>
<path d="M7.69008 5.64268C7.96774 5.90316 8.22975 6.17984 8.47473 6.47128V4.95899C8.46061 4.94853 8.44648 4.93911 8.43236 4.92969H8.4287C8.4151 4.92133 8.40045 4.91348 8.38633 4.90563H8.3811L8.3382 4.88575H8.33245C8.31806 4.87966 8.3034 4.87425 8.28851 4.86954H8.28223C8.26758 4.86483 8.25241 4.86065 8.23724 4.85698H8.23254C8.21632 4.85332 8.20063 4.85018 8.18441 4.84809C8.0974 4.8355 8.00873 4.84088 7.92389 4.86392C7.83904 4.88695 7.75982 4.92714 7.69113 4.98201L7.69008 5.64268ZM16.135 12.0193C16.1603 11.9575 16.1733 11.8914 16.1732 11.8247C16.1731 11.7874 16.1691 11.7502 16.1612 11.7138C16.1609 11.7108 16.1609 11.7079 16.1612 11.7049C16.1612 11.6955 16.156 11.6861 16.1533 11.6767C16.1519 11.6712 16.1502 11.6657 16.1481 11.6604C16.1456 11.6519 16.1426 11.6435 16.1392 11.6353C16.1366 11.6291 16.134 11.6223 16.1309 11.6155C16.1277 11.6087 16.1251 11.6013 16.1214 11.5945C16.1178 11.5877 16.1084 11.5694 16.101 11.5574L16.0911 11.5422C16.0859 11.5339 16.0801 11.5255 16.0744 11.5176C16.0686 11.5098 16.0665 11.5077 16.0628 11.503L16.0424 11.4789L16.0315 11.4664C16.0205 11.4554 16.009 11.4439 15.9969 11.4334L15.7427 11.2137L15.681 11.1614L14.1771 9.86411C13.9919 9.76682 13.8051 9.67388 13.6168 9.5853C12.3986 9.01217 11.099 8.63103 9.76418 8.4554C9.89844 8.73439 10.0193 9.01791 10.1267 9.30596C12.2374 9.67764 14.2188 10.5802 15.8845 11.9288C15.9547 11.9867 16.043 12.0183 16.134 12.0182L16.135 12.0193Z" fill="#FEE45A"/>
<path d="M5.45436 20.9257L7.64407 18.736C7.70238 18.6775 7.77168 18.631 7.84798 18.5994C7.92428 18.5677 8.00609 18.5514 8.0887 18.5514C8.17132 18.5514 8.25313 18.5677 8.32943 18.5994C8.40573 18.631 8.47502 18.6775 8.53334 18.736L10.721 20.9257C10.8086 21.0135 10.8683 21.1253 10.8925 21.247C10.9167 21.3687 10.9042 21.4948 10.8568 21.6094C10.8093 21.7241 10.7289 21.8221 10.6258 21.891C10.5227 21.96 10.4014 21.9969 10.2774 21.997H5.89795C5.77388 21.9969 5.65263 21.96 5.5495 21.891C5.44637 21.8221 5.366 21.7241 5.31853 21.6094C5.27107 21.4948 5.25864 21.3687 5.28281 21.247C5.30699 21.1253 5.36669 21.0135 5.45436 20.9257Z" fill="#4F66D0"/>
<path d="M10.7209 20.9262L8.53123 18.7365C8.4224 18.6278 8.27749 18.5629 8.12399 18.5541C7.97048 18.5452 7.81906 18.593 7.69845 18.6883C8.63009 19.62 7.97046 21.2128 6.65225 21.2128H5.28852C5.26453 21.3057 5.26216 21.4029 5.28158 21.4968C5.301 21.5908 5.3417 21.679 5.40055 21.7548C5.4594 21.8306 5.53483 21.8918 5.62105 21.9339C5.70727 21.976 5.80199 21.9977 5.89793 21.9975H10.2773C10.4014 21.9974 10.5227 21.9605 10.6258 21.8915C10.7289 21.8225 10.8093 21.7245 10.8568 21.6099C10.9042 21.4953 10.9167 21.3691 10.8925 21.2474C10.8683 21.1257 10.8086 21.0139 10.7209 20.9262Z" fill="#314DC9"/>
<path d="M14.1858 17.3749L16.3755 15.1851C16.4339 15.1266 16.5032 15.0802 16.5795 15.0485C16.6558 15.0168 16.7376 15.0005 16.8202 15.0005C16.9028 15.0005 16.9846 15.0168 17.0609 15.0485C17.1372 15.0802 17.2065 15.1266 17.2648 15.1851L19.4524 17.3749C19.5401 17.4626 19.5998 17.5744 19.624 17.6961C19.6482 17.8178 19.6357 17.944 19.5883 18.0586C19.5408 18.1732 19.4604 18.2712 19.3573 18.3402C19.2542 18.4092 19.1329 18.4461 19.0088 18.4462H14.6294C14.5054 18.4461 14.3841 18.4092 14.281 18.3402C14.1778 18.2712 14.0975 18.1732 14.05 18.0586C14.0025 17.944 13.9901 17.8178 14.0143 17.6961C14.0385 17.5744 14.0982 17.4626 14.1858 17.3749Z" fill="#FEDF30"/>
<path d="M19.4523 17.3756L17.2626 15.1859C17.1538 15.0773 17.0089 15.0124 16.8554 15.0035C16.7019 14.9946 16.5505 15.0424 16.4299 15.1378C17.3615 16.0694 16.7019 17.6623 15.3837 17.6623H14.0199C13.9959 17.7552 13.9936 17.8523 14.013 17.9463C14.0324 18.0402 14.0731 18.1285 14.132 18.2043C14.1908 18.28 14.2662 18.3413 14.3525 18.3834C14.4387 18.4254 14.5334 18.4472 14.6293 18.4469H19.0088C19.1328 18.4468 19.2541 18.41 19.3572 18.341C19.4603 18.272 19.5407 18.174 19.5882 18.0594C19.6356 17.9447 19.6481 17.8186 19.6239 17.6969C19.5997 17.5752 19.54 17.4634 19.4523 17.3756Z" fill="#FED402"/>
<path d="M11.063 13.8121C11.5989 13.8121 12.0334 13.3777 12.0334 12.8417C12.0334 12.3058 11.5989 11.8714 11.063 11.8714C10.5271 11.8714 10.0927 12.3058 10.0927 12.8417C10.0927 13.3777 10.5271 13.8121 11.063 13.8121Z" fill="#4F66D0"/>
<path d="M11.0656 13.8121C11.2091 13.8124 11.3508 13.781 11.4806 13.72C11.6105 13.659 11.7252 13.5699 11.8165 13.4593C11.9078 13.3486 11.9734 13.2191 12.0086 13.08C12.0438 12.941 12.0478 12.7959 12.0202 12.6551C11.9926 12.5143 11.9341 12.3814 11.849 12.2659C11.7639 12.1505 11.6542 12.0553 11.5279 11.9873C11.4016 11.9193 11.2618 11.8802 11.1185 11.8727C10.9753 11.8652 10.8321 11.8896 10.6994 11.9441C10.7431 12.5367 10.7323 13.132 10.667 13.7226C10.7919 13.7807 10.9279 13.8112 11.0656 13.8121Z" fill="#314DC9"/>
<path d="M4.85335 13.8121C5.38926 13.8121 5.8237 13.3777 5.8237 12.8417C5.8237 12.3058 5.38926 11.8714 4.85335 11.8714C4.31744 11.8714 3.883 12.3058 3.883 12.8417C3.883 13.3777 4.31744 13.8121 4.85335 13.8121Z" fill="#4F66D0"/>
<path d="M20.18 6.94123C20.7159 6.94123 21.1504 6.50679 21.1504 5.97087C21.1504 5.43496 20.7159 5.00052 20.18 5.00052C19.6441 5.00052 19.2097 5.43496 19.2097 5.97087C19.2097 6.50679 19.6441 6.94123 20.18 6.94123Z" fill="#FEDF30"/>
<path d="M13.9704 6.94123C14.5063 6.94123 14.9407 6.50679 14.9407 5.97087C14.9407 5.43496 14.5063 5.00052 13.9704 5.00052C13.4344 5.00052 13 5.43496 13 5.97087C13 6.50679 13.4344 6.94123 13.9704 6.94123Z" fill="#FEDF30"/>
</svg>
