<svg width="24" height="24" viewBox="0 0 24 24" fill="none" xmlns="http://www.w3.org/2000/svg">
<path d="M11.4456 4.47771C11.12 4.15183 10.6761 3.94458 10.2024 3.94458C9.72878 3.94458 9.28489 4.12229 8.95925 4.47771C8.63365 4.80358 8.42657 5.24788 8.42657 5.72192C8.42657 6.19596 8.60414 6.64021 8.95925 6.96613C9.28485 7.29201 9.72877 7.49926 10.2024 7.49926C10.676 7.49926 11.1199 7.32155 11.4456 6.96613C11.7712 6.64025 11.9783 6.19596 11.9783 5.72192C11.9785 5.24789 11.7712 4.80363 11.4456 4.47771ZM10.5873 6.1366C10.3505 6.37362 9.96562 6.37362 9.75853 6.1366C9.64023 6.0182 9.58097 5.87003 9.58097 5.72188C9.58097 5.57372 9.64023 5.42555 9.75853 5.30715C9.87684 5.18874 10.0249 5.12944 10.1729 5.12944C10.3209 5.12944 10.469 5.18874 10.5873 5.30715C10.7056 5.42556 10.7648 5.57372 10.7648 5.72188C10.7648 5.86983 10.7056 6.04775 10.5873 6.1366Z" fill="#333333"/>
<path d="M12.0375 10.047C12.1263 10.0766 12.2151 10.1063 12.3039 10.1063C12.5111 10.1063 12.7182 9.98793 12.8365 9.78046C14.3165 6.81805 14.2869 3.29279 12.7773 0.330378C12.6292 0.0340528 12.2741 -0.0843483 11.978 0.0638091C11.682 0.211972 11.5637 0.567392 11.7117 0.863712C13.0734 3.47068 13.0734 6.61078 11.771 9.24733C11.6231 9.54345 11.7416 9.89885 12.0375 10.047Z" fill="#333333"/>
<path d="M6.73929 7.23273C6.79855 7.23273 6.8576 7.26228 6.88733 7.26228C7.15367 7.26228 7.39048 7.08457 7.44976 6.818C7.92339 5.15911 7.53854 3.35199 6.47299 1.98923C6.2657 1.72266 5.91056 1.6929 5.64422 1.90037C5.37787 2.10784 5.34814 2.46328 5.55544 2.72984C6.38421 3.79631 6.68025 5.21821 6.32496 6.52173C6.23618 6.81805 6.41374 7.14394 6.73934 7.23276L6.73929 7.23273Z" fill="#333333"/>
<path d="M23.67 11.2616C20.7396 9.75086 17.1878 9.72113 14.2279 11.2023C13.9318 11.3505 13.8135 11.7059 13.9615 12.0022C14.1096 12.2986 14.4647 12.417 14.7607 12.2688C17.3951 10.9653 20.5326 10.9951 23.1373 12.3281C23.2261 12.3874 23.3148 12.3874 23.4036 12.3874C23.6109 12.3874 23.818 12.269 23.9363 12.0615C24.0843 11.7652 23.9658 11.4098 23.67 11.2616Z" fill="#333333"/>
<path d="M22.042 17.5419C20.6804 16.4755 18.8748 16.12 17.2173 16.5643C16.8917 16.6532 16.7142 16.9791 16.8029 17.3049C16.8917 17.6308 17.2173 17.8085 17.5429 17.7197C18.8453 17.3642 20.266 17.6308 21.3316 18.4898C21.4499 18.5787 21.5684 18.6082 21.6867 18.6082C21.8643 18.6082 22.0419 18.5194 22.1604 18.3712C22.3677 18.1049 22.3084 17.7494 22.042 17.5419Z" fill="#333333"/>
<path d="M22.2788 2.81875C22.19 2.61128 21.9827 2.49288 21.7461 2.46333H20.651L20.0591 1.54503C19.9408 1.36732 19.7335 1.24871 19.4966 1.27847C19.2598 1.30801 19.0823 1.45618 18.9935 1.66364L18.6086 2.73011L17.5135 3.02643C17.3062 3.08574 17.1287 3.26345 17.0991 3.50047C17.0696 3.70794 17.1584 3.94474 17.336 4.0929L18.1942 4.74463L18.1054 5.84066C18.0759 6.07768 18.1942 6.28494 18.4015 6.40357C18.4903 6.46288 18.5791 6.49243 18.6976 6.49243C18.8159 6.49243 18.9344 6.46288 19.0232 6.37402L19.9705 5.72229L21.0065 6.10747C21.2138 6.19633 21.4504 6.13702 21.5985 5.98906C21.776 5.8409 21.8353 5.60389 21.776 5.39664L21.48 4.33017L22.1904 3.44139C22.338 3.26327 22.3676 3.02624 22.2788 2.81875ZM20.3844 3.79635C20.2661 3.94451 20.2069 4.15177 20.2661 4.32948L20.3254 4.5665L20.0886 4.47764C19.911 4.41833 19.7037 4.44809 19.5559 4.53694L19.3783 4.65535V4.47764C19.3783 4.27017 19.3191 4.09246 19.1415 3.97406L18.964 3.85565L19.2008 3.79634C19.3783 3.73704 19.5264 3.61863 19.5856 3.44092L19.6744 3.2039L19.7927 3.38161C19.911 3.55932 20.0888 3.64818 20.2959 3.64818H20.4734L20.3844 3.79635Z" fill="#333333"/>
<path d="M16.3294 9.48416C16.7733 9.48416 17.2469 9.30644 17.5725 8.95103C17.8981 8.62515 18.1052 8.18086 18.1052 7.70682C18.1052 7.23278 17.9277 6.78852 17.5725 6.46261C16.8918 5.7813 15.767 5.7813 15.0565 6.46261C14.7309 6.78848 14.5238 7.23278 14.5238 7.70682C14.5238 8.18085 14.7014 8.62511 15.0565 8.95103C15.4116 9.30645 15.8853 9.48416 16.3294 9.48416ZM15.915 7.29208C16.0333 7.17367 16.1813 7.11437 16.3294 7.11437C16.4774 7.11437 16.6255 7.17367 16.7438 7.29208C16.8621 7.41049 16.9213 7.55865 16.9213 7.70681C16.9213 7.85496 16.8621 8.00313 16.7438 8.12153C16.5069 8.35855 16.1518 8.35855 15.915 8.12153C15.7967 8.00313 15.7374 7.85496 15.7374 7.70681C15.7372 7.55864 15.7965 7.38093 15.915 7.29208Z" fill="#333333"/>
<path d="M18.1349 11.9133C17.6613 11.9133 17.2174 12.091 16.8918 12.4465C16.5662 12.7723 16.3591 13.2166 16.3591 13.6907C16.3591 14.1647 16.5366 14.609 16.8918 14.9349C17.2174 15.2608 17.6613 15.468 18.1349 15.468C18.6086 15.468 19.0524 15.2903 19.3781 14.9349C19.7037 14.609 19.9108 14.1647 19.9108 13.6907C19.9108 13.2166 19.7332 12.7724 19.3781 12.4465C19.0525 12.091 18.6084 11.9133 18.1349 11.9133ZM18.5493 14.1056C18.3125 14.3426 17.9276 14.3426 17.7205 14.1056C17.6022 13.9872 17.543 13.839 17.543 13.6908C17.543 13.5427 17.6022 13.3945 17.7205 13.2761C17.8388 13.1577 17.9869 13.0984 18.1349 13.0984C18.2829 13.0984 18.431 13.1577 18.5493 13.2761C18.6676 13.3945 18.7268 13.5427 18.7268 13.6908C18.7268 13.8388 18.6676 13.987 18.5493 14.1056Z" fill="#333333"/>
<path d="M1.70743 7.97336L2.26987 8.89165C2.38817 9.06936 2.56594 9.15822 2.77302 9.15822H2.83228C3.0691 9.12867 3.24666 8.98051 3.33544 8.77304L3.74981 7.70658L4.84493 7.41025C5.05222 7.35094 5.22978 7.17323 5.2593 6.96597C5.28883 6.7585 5.22978 6.5217 5.05201 6.37354L4.19374 5.72181L4.28252 4.62578C4.31205 4.38876 4.19374 4.1815 3.98645 4.06287C3.77916 3.94446 3.54255 3.94446 3.36476 4.09242L2.41749 4.74415L1.35213 4.35918C1.14484 4.27032 0.90823 4.32963 0.760203 4.47758C0.58264 4.62575 0.523384 4.86276 0.58264 5.07001L0.878716 6.13648L0.138739 7.02525C-0.00929855 7.20297 -0.0388238 7.43998 0.0499576 7.64746C0.138739 7.85493 0.346033 7.97334 0.582635 8.00289L1.70743 7.97336ZM1.97378 6.64033C2.09208 6.49216 2.15134 6.2849 2.09208 6.1072L2.03283 5.87018L2.26964 5.95904C2.44721 6.01834 2.6545 5.98858 2.80232 5.89973L2.97988 5.78132V5.95904C2.95036 6.1665 3.03914 6.34421 3.2167 6.46262L3.39427 6.58102L3.12813 6.66988C2.95057 6.72919 2.80253 6.84759 2.74328 7.02531L2.62497 7.26233L2.53619 7.08461C2.41788 6.9069 2.24011 6.81804 2.03303 6.81804H1.85547L1.97378 6.64033Z" fill="#333333"/>
<path d="M15.2046 20.7117C14.9973 20.8006 14.8494 20.9783 14.8197 21.2153C14.7902 21.4523 14.9085 21.6596 15.1158 21.7782L16.0631 22.3411L16.0926 23.4076C16.0926 23.6446 16.2406 23.8223 16.4477 23.9407C16.5365 23.9703 16.5958 24 16.6845 24C16.8028 24 16.9509 23.9407 17.0694 23.8816L17.9574 23.1706L19.0525 23.4669C19.2598 23.5262 19.4964 23.4669 19.6445 23.2892C19.7925 23.1115 19.822 22.8745 19.7628 22.667L19.3484 21.6598L19.9701 20.7415C20.0884 20.5638 20.1181 20.2972 19.9996 20.1193C19.8813 19.9118 19.674 19.823 19.4372 19.823L18.3123 19.9118L17.6316 19.0528C17.4836 18.8751 17.2765 18.8158 17.0397 18.8454C16.8324 18.9047 16.6548 19.0528 16.5958 19.2601L16.2997 20.3266L15.2046 20.7117ZM16.9804 21.3041C17.158 21.2448 17.306 21.0967 17.3355 20.8894L17.3948 20.6524L17.5428 20.8599C17.6611 21.008 17.8389 21.0969 18.046 21.0673L18.2533 21.0378L18.135 21.1859C18.0167 21.3637 17.9869 21.5711 18.0757 21.7489L18.1645 21.9563L17.9277 21.9264C17.7501 21.8671 17.5428 21.9264 17.395 22.0448L17.1877 22.1929V21.9855C17.1877 21.778 17.0694 21.6003 16.8916 21.5114L16.7436 21.4226L16.9804 21.3041Z" fill="#333333"/>
<path d="M7 9.5L2 22V22.5L14.5 17.5V17C14 16.1667 12.8 14.3 12 13.5C11.2 12.7 8.33333 10.5 7 9.5Z" fill="#333333" stroke="#333333"/>
<path d="M1.05621 23.763L15.2638 18.164C15.5598 18.0456 15.7077 17.7197 15.6189 17.4234C14.1389 13.1873 10.8534 9.89889 6.62077 8.41769C6.3247 8.29928 5.99909 8.477 5.8808 8.77312L0.286574 22.9927C0.197793 23.2001 0.25705 23.4667 0.404881 23.6149C0.523187 23.7333 0.671225 23.7926 0.819257 23.7926C0.908244 23.8221 0.967501 23.7924 1.05628 23.7628L1.05621 23.763ZM6.73923 9.75077C10.2023 11.1134 12.9254 13.8092 14.287 17.2753L1.85539 22.1632L6.73923 9.75077Z" fill="#333333"/>
</svg>
